<mxfile host="65bd71144e">
    <diagram id="MOKoAH8Etc76SI4rDOyI" name="Page-1">
        <mxGraphModel dx="1904" dy="618" grid="1" gridSize="10" guides="1" tooltips="1" connect="1" arrows="1" fold="1" page="1" pageScale="1" pageWidth="850" pageHeight="1100" math="0" shadow="0">
            <root>
                <mxCell id="0"/>
                <mxCell id="1" parent="0"/>
                <mxCell id="2" value="" style="group" vertex="1" connectable="0" parent="1">
                    <mxGeometry x="280" y="50" width="370.69" height="610" as="geometry"/>
                </mxCell>
                <mxCell id="3" value="" style="rounded=0;whiteSpace=wrap;html=1;" vertex="1" parent="2">
                    <mxGeometry width="369.99999999999994" height="610" as="geometry"/>
                </mxCell>
                <mxCell id="4" value="&lt;font style=&quot;font-size: 24px;&quot;&gt;Supply&lt;/font&gt;" style="text;html=1;strokeColor=none;fillColor=none;align=center;verticalAlign=middle;whiteSpace=wrap;rounded=0;" vertex="1" parent="2">
                    <mxGeometry x="113.74074074074073" width="143.88888888888889" height="108.92857142857143" as="geometry"/>
                </mxCell>
                <mxCell id="5" value="" style="endArrow=none;html=1;fontSize=24;entryX=1.014;entryY=0.157;entryDx=0;entryDy=0;entryPerimeter=0;" edge="1" parent="2" target="3">
                    <mxGeometry width="50" height="50" relative="1" as="geometry">
                        <mxPoint y="98.03571428571432" as="sourcePoint"/>
                        <mxPoint x="397.40740740740733" y="326.78571428571433" as="targetPoint"/>
                    </mxGeometry>
                </mxCell>
                <mxCell id="6" value="- rations:int" style="text;html=1;strokeColor=none;fillColor=none;align=center;verticalAlign=middle;whiteSpace=wrap;rounded=0;fontSize=24;" vertex="1" parent="2">
                    <mxGeometry x="-13.874999999999998" y="108.93465116279073" width="195.88235294117646" height="20.456279069767444" as="geometry"/>
                </mxCell>
                <mxCell id="7" value="- firstAidKits:int" style="text;html=1;strokeColor=none;fillColor=none;align=center;verticalAlign=middle;whiteSpace=wrap;rounded=0;fontSize=24;" vertex="1" parent="2">
                    <mxGeometry x="-13.874999999999998" y="129.3913601127555" width="232.9643333333333" height="54.123636363636365" as="geometry"/>
                </mxCell>
                <mxCell id="8" value="&lt;div style=&quot;&quot;&gt;+Supply()&lt;/div&gt;&lt;div style=&quot;&quot;&gt;+Supply(Rations:int, firstAidKits:int, essentials:int, clothing:int)&lt;/div&gt;&lt;div style=&quot;&quot;&gt;+setRations(rations:int):void&lt;/div&gt;&lt;div style=&quot;&quot;&gt;+setFirstAid(firstAidKits:int):void&lt;/div&gt;&lt;div style=&quot;&quot;&gt;+setEssentials(essentials:int):void&lt;br&gt;&lt;/div&gt;&lt;div style=&quot;&quot;&gt;+setClothing(clothing:int):void&lt;br&gt;&lt;/div&gt;&lt;div style=&quot;&quot;&gt;&lt;div&gt;+getRations():int&lt;/div&gt;&lt;div&gt;+getFirstAid():int&lt;/div&gt;&lt;div&gt;+getEssentials():int&lt;br&gt;&lt;/div&gt;&lt;div&gt;+getClothing():int&lt;/div&gt;&lt;/div&gt;" style="text;html=1;strokeColor=none;fillColor=none;align=left;verticalAlign=middle;whiteSpace=wrap;rounded=0;fontSize=24;" vertex="1" parent="2">
                    <mxGeometry x="0.69" y="240" width="370" height="350" as="geometry"/>
                </mxCell>
                <mxCell id="9" value="" style="endArrow=none;html=1;fontSize=24;exitX=0;exitY=0;exitDx=0;exitDy=0;entryX=1;entryY=0;entryDx=0;entryDy=0;" edge="1" parent="2" source="8" target="8">
                    <mxGeometry width="50" height="50" relative="1" as="geometry">
                        <mxPoint x="328.88888888888886" y="326.78571428571433" as="sourcePoint"/>
                        <mxPoint x="397.40740740740733" y="217.85714285714286" as="targetPoint"/>
                    </mxGeometry>
                </mxCell>
                <mxCell id="10" value="- essentials:int" style="text;html=1;strokeColor=none;fillColor=none;align=center;verticalAlign=middle;whiteSpace=wrap;rounded=0;fontSize=24;" vertex="1" parent="2">
                    <mxGeometry x="-11.600588235294117" y="174.2897674418605" width="219.09441176470588" height="38.50093023255815" as="geometry"/>
                </mxCell>
                <mxCell id="11" value="- clothing:int" style="text;html=1;strokeColor=none;fillColor=none;align=center;verticalAlign=middle;whiteSpace=wrap;rounded=0;fontSize=24;" vertex="1" parent="2">
                    <mxGeometry x="-11.6" y="212.78985074626868" width="195.88" height="23.926567164179104" as="geometry"/>
                </mxCell>
            </root>
        </mxGraphModel>
    </diagram>
</mxfile>